<svg xmlns="http://www.w3.org/2000/svg" width="27.6" height="27.594" viewBox="0 0 27.6 27.594">
  <g id="Layer_2" data-name="Layer 2" transform="translate(0.001 -90.006)">
    <g id="ELEMENTS" transform="translate(-0.001 90.006)">
      <path id="Path_1151" data-name="Path 1151" d="M27.6,13.8A13.8,13.8,0,1,0,11.646,27.437v-9.65H8.136V13.8h3.51V10.759c0-3.456,2.059-5.367,5.211-5.367a21.062,21.062,0,0,1,3.12.273V9.058H18.207a2,2,0,0,0-2.254,2.153V13.8h3.83l-.608,3.986H15.952v9.65A13.807,13.807,0,0,0,27.6,13.8Z" transform="translate(0.001 -0.006)" fill="#337fff"/>
      <path id="Path_1152" data-name="Path 1152" d="M21.459,19.305l.608-3.986h-3.83v-2.59a2,2,0,0,1,2.254-2.153h1.74V7.183a21.062,21.062,0,0,0-3.12-.273c-3.12,0-5.211,1.911-5.211,5.367v3.042H10.39v3.986H13.9v9.65a14.228,14.228,0,0,0,4.306,0v-9.65Z" transform="translate(-2.284 -1.525)" fill="#fff"/>
    </g>
  </g>
</svg>
