<svg xmlns="http://www.w3.org/2000/svg" width="27.62" height="27.713" viewBox="0 0 27.62 27.713">
  <g id="Layer_2" data-name="Layer 2" transform="translate(0 0.112)">
    <g id="ELEMENTS" transform="translate(0 -0.112)">
      <path id="Path_1156" data-name="Path 1156" d="M0,27.6l1.983-7.387a13.68,13.68,0,1,1,5.466,5.4Zm7.808-4.755.461.273A11.056,11.056,0,1,0,2.85,13.624a10.931,10.931,0,0,0,1.616,5.731l.289.476L3.646,23.954Z" transform="translate(0 0.112)" fill="#00d95f"/>
      <path id="Path_1157" data-name="Path 1157" d="M21.043,17.627a2.28,2.28,0,0,0-1.952-.445c-.508.211-.835,1.007-1.163,1.405a.484.484,0,0,1-.625.141,8.847,8.847,0,0,1-4.419-3.787.531.531,0,0,1,.07-.734,3.061,3.061,0,0,0,.781-1.3,2.842,2.842,0,0,0-.359-1.562,3.654,3.654,0,0,0-1.132-1.71,1.562,1.562,0,0,0-1.679.258,3.451,3.451,0,0,0-1.195,2.733,3.545,3.545,0,0,0,.109.859,7.176,7.176,0,0,0,.828,1.913,14.766,14.766,0,0,0,.867,1.32A13.313,13.313,0,0,0,14.929,20.2a11.314,11.314,0,0,0,2.342,1.117A5.185,5.185,0,0,0,20,21.742a3.272,3.272,0,0,0,2.467-1.835,1.562,1.562,0,0,0,.117-.937C22.44,18.322,21.574,17.939,21.043,17.627Z" transform="translate(-2.053 -1.993)" fill="#00d95f" fill-rule="evenodd"/>
    </g>
  </g>
</svg>
